<svg xmlns="http://www.w3.org/2000/svg" xmlns:xlink="http://www.w3.org/1999/xlink" width="450" zoomAndPan="magnify" viewBox="0 0 337.5 374.999991" height="500" preserveAspectRatio="xMidYMid meet" version="1.0"><defs><g/><clipPath id="0af4de3be7"><path d="M 14.914062 117 L 48 117 L 48 201 L 14.914062 201 Z M 14.914062 117 " clip-rule="nonzero"/></clipPath><clipPath id="f2b4b9a982"><path d="M 124 5.015625 L 322.414062 5.015625 L 322.414062 312.515625 L 124 312.515625 Z M 124 5.015625 " clip-rule="nonzero"/></clipPath></defs><path fill="#ffffff" d="M 98.453125 260.980469 C 85.144531 251.816406 73.902344 240.335938 65.027344 226.859375 C 60.519531 220.003906 51.289062 218.085938 44.417969 222.609375 C 37.554688 227.128906 35.652344 236.355469 40.171875 243.21875 C 51.160156 259.917969 65.097656 274.140625 81.578125 285.488281 C 84.15625 287.265625 87.09375 288.113281 90 288.113281 C 94.734375 288.113281 99.382812 285.859375 102.269531 281.671875 C 106.929688 274.90625 105.222656 265.640625 98.453125 260.980469 Z M 98.453125 260.980469 " fill-opacity="1" fill-rule="nonzero"/><path fill="#ffffff" d="M 44.359375 95.015625 C 46.878906 96.671875 49.714844 97.460938 52.515625 97.460938 C 57.359375 97.460938 62.105469 95.101562 64.964844 90.753906 C 73.832031 77.257812 85.070312 65.769531 98.367188 56.605469 C 105.125 51.941406 106.832031 42.675781 102.167969 35.910156 C 97.5 29.140625 88.242188 27.445312 81.472656 32.109375 C 65.003906 43.460938 51.082031 57.695312 40.097656 74.410156 C 35.585938 81.277344 37.492188 90.503906 44.359375 95.015625 Z M 44.359375 95.015625 " fill-opacity="1" fill-rule="nonzero"/><g clip-path="url(#0af4de3be7)"><path fill="#ffffff" d="M 46.980469 182.699219 C 45.449219 174.886719 44.675781 166.828125 44.671875 158.765625 C 44.671875 150.757812 45.441406 142.738281 46.957031 134.933594 C 48.523438 126.867188 43.25 119.058594 35.1875 117.488281 C 27.074219 115.9375 19.300781 121.195312 17.742188 129.257812 C 15.867188 138.929688 14.914062 148.859375 14.914062 158.773438 C 14.917969 168.75 15.882812 178.722656 17.777344 188.414062 C 19.164062 195.515625 25.390625 200.441406 32.363281 200.441406 C 33.308594 200.441406 34.273438 200.351562 35.234375 200.160156 C 43.300781 198.582031 48.554688 190.769531 46.980469 182.699219 Z M 46.980469 182.699219 " fill-opacity="1" fill-rule="nonzero"/></g><g clip-path="url(#f2b4b9a982)"><path fill="#ffffff" d="M 168.664062 5.015625 C 157.648438 5.015625 146.644531 6.1875 135.949219 8.507812 C 127.921875 10.246094 122.816406 18.164062 124.558594 26.195312 C 126.066406 33.164062 132.230469 37.929688 139.085938 37.929688 C 140.125 37.929688 141.1875 37.820312 142.246094 37.585938 C 150.878906 35.722656 159.761719 34.773438 168.664062 34.773438 C 237.03125 34.773438 292.65625 90.394531 292.65625 158.765625 C 292.65625 227.132812 237.03125 282.757812 168.664062 282.757812 C 159.761719 282.757812 150.878906 281.808594 142.246094 279.941406 C 134.195312 278.195312 126.292969 283.304688 124.558594 291.332031 C 122.816406 299.363281 127.921875 307.285156 135.949219 309.023438 C 146.644531 311.34375 157.648438 312.515625 168.664062 312.515625 C 253.441406 312.515625 322.414062 243.542969 322.414062 158.765625 C 322.414062 73.984375 253.441406 5.015625 168.664062 5.015625 Z M 168.664062 5.015625 " fill-opacity="1" fill-rule="nonzero"/></g><path fill="#ffffff" d="M 129.769531 226.125 C 132.070312 227.457031 134.644531 228.121094 137.210938 228.121094 C 139.777344 228.121094 142.347656 227.457031 144.648438 226.125 L 239.007812 171.648438 C 243.609375 168.992188 246.449219 164.082031 246.449219 158.765625 C 246.449219 153.445312 243.609375 148.535156 239.007812 145.878906 L 144.648438 91.402344 C 140.046875 88.738281 134.371094 88.738281 129.769531 91.402344 C 125.167969 94.054688 122.332031 98.96875 122.332031 104.285156 L 122.332031 213.242188 C 122.332031 218.5625 125.167969 223.472656 129.769531 226.125 Z M 152.089844 130.058594 L 201.8125 158.765625 L 152.089844 187.472656 Z M 152.089844 130.058594 " fill-opacity="1" fill-rule="nonzero"/><g fill="#ffffff" fill-opacity="1"><g transform="translate(18.761868, 365.722655)"><g><path d="M 11.203125 0 L 11.203125 -28.9375 L 1.3125 -28.9375 L 1.3125 -33.921875 L 27.34375 -33.921875 L 27.34375 -28.9375 L 17.40625 -28.9375 L 17.40625 0 Z M 11.203125 0 "/></g></g></g><g fill="#ffffff" fill-opacity="1"><g transform="translate(54.906993, 365.722655)"><g><path d="M 16.375 0.578125 C 13.894531 0.578125 11.648438 0.0859375 9.640625 -0.890625 C 7.640625 -1.878906 6.050781 -3.375 4.875 -5.375 C 3.695312 -7.382812 3.109375 -9.921875 3.109375 -12.984375 L 3.109375 -33.921875 L 9.3125 -33.921875 L 9.3125 -12.9375 C 9.3125 -10.289062 9.945312 -8.320312 11.21875 -7.03125 C 12.5 -5.738281 14.269531 -5.09375 16.53125 -5.09375 C 18.757812 -5.09375 20.519531 -5.738281 21.8125 -7.03125 C 23.101562 -8.320312 23.75 -10.289062 23.75 -12.9375 L 23.75 -33.921875 L 29.953125 -33.921875 L 29.953125 -12.984375 C 29.953125 -9.921875 29.335938 -7.382812 28.109375 -5.375 C 26.878906 -3.375 25.238281 -1.878906 23.1875 -0.890625 C 21.132812 0.0859375 18.863281 0.578125 16.375 0.578125 Z M 16.375 0.578125 "/></g></g></g><g fill="#ffffff" fill-opacity="1"><g transform="translate(95.412235, 365.722655)"><g><path d="M 3.296875 0 L 3.296875 -33.921875 L 9.5 -33.921875 L 25.453125 -10.03125 L 25.453125 -33.921875 L 31.65625 -33.921875 L 31.65625 0 L 25.453125 0 L 9.5 -23.84375 L 9.5 0 Z M 3.296875 0 "/></g></g></g><g fill="#ffffff" fill-opacity="1"><g transform="translate(137.855309, 365.722655)"><g><path d="M 3.296875 0 L 3.296875 -33.921875 L 25.453125 -33.921875 L 25.453125 -28.9375 L 9.5 -28.9375 L 9.5 -19.625 L 23.984375 -19.625 L 23.984375 -14.78125 L 9.5 -14.78125 L 9.5 -5 L 25.453125 -5 L 25.453125 0 Z M 3.296875 0 "/></g></g></g><g fill="#ffffff" fill-opacity="1"><g transform="translate(173.370642, 365.722655)"><g><path d="M 14.875 0.578125 C 12.382812 0.578125 10.1875 0.148438 8.28125 -0.703125 C 6.375 -1.554688 4.867188 -2.78125 3.765625 -4.375 C 2.671875 -5.976562 2.109375 -7.929688 2.078125 -10.234375 L 8.625 -10.234375 C 8.6875 -8.648438 9.257812 -7.316406 10.34375 -6.234375 C 11.425781 -5.148438 12.921875 -4.609375 14.828125 -4.609375 C 16.472656 -4.609375 17.78125 -5.003906 18.75 -5.796875 C 19.726562 -6.585938 20.21875 -7.644531 20.21875 -8.96875 C 20.21875 -10.351562 19.785156 -11.429688 18.921875 -12.203125 C 18.066406 -12.984375 16.925781 -13.613281 15.5 -14.09375 C 14.082031 -14.582031 12.566406 -15.101562 10.953125 -15.65625 C 8.335938 -16.5625 6.34375 -17.722656 4.96875 -19.140625 C 3.59375 -20.566406 2.90625 -22.457031 2.90625 -24.8125 C 2.875 -26.820312 3.347656 -28.546875 4.328125 -29.984375 C 5.316406 -31.421875 6.664062 -32.535156 8.375 -33.328125 C 10.09375 -34.117188 12.066406 -34.515625 14.296875 -34.515625 C 16.554688 -34.515625 18.550781 -34.109375 20.28125 -33.296875 C 22.007812 -32.492188 23.363281 -31.363281 24.34375 -29.90625 C 25.332031 -28.445312 25.863281 -26.71875 25.9375 -24.71875 L 19.296875 -24.71875 C 19.253906 -25.914062 18.789062 -26.972656 17.90625 -27.890625 C 17.019531 -28.816406 15.785156 -29.28125 14.203125 -29.28125 C 12.847656 -29.3125 11.707031 -28.976562 10.78125 -28.28125 C 9.863281 -27.582031 9.40625 -26.570312 9.40625 -25.25 C 9.40625 -24.125 9.757812 -23.226562 10.46875 -22.5625 C 11.175781 -21.894531 12.144531 -21.335938 13.375 -20.890625 C 14.601562 -20.441406 16.007812 -19.957031 17.59375 -19.4375 C 19.269531 -18.851562 20.800781 -18.171875 22.1875 -17.390625 C 23.582031 -16.617188 24.695312 -15.59375 25.53125 -14.3125 C 26.375 -13.039062 26.796875 -11.40625 26.796875 -9.40625 C 26.796875 -7.625 26.34375 -5.972656 25.4375 -4.453125 C 24.539062 -2.941406 23.203125 -1.722656 21.421875 -0.796875 C 19.640625 0.117188 17.457031 0.578125 14.875 0.578125 Z M 14.875 0.578125 "/></g></g></g><g fill="#ffffff" fill-opacity="1"><g transform="translate(209.784243, 365.722655)"><g><path d="M 3.59375 0 L 3.59375 -33.921875 L 14 -33.921875 C 19.976562 -33.921875 24.378906 -32.398438 27.203125 -29.359375 C 30.035156 -26.328125 31.453125 -22.160156 31.453125 -16.859375 C 31.453125 -11.660156 30.035156 -7.550781 27.203125 -4.53125 C 24.378906 -1.507812 19.976562 0 14 0 Z M 7.65625 -3.390625 L 13.90625 -3.390625 C 17.207031 -3.390625 19.832031 -3.929688 21.78125 -5.015625 C 23.738281 -6.097656 25.132812 -7.648438 25.96875 -9.671875 C 26.8125 -11.691406 27.234375 -14.085938 27.234375 -16.859375 C 27.234375 -19.703125 26.8125 -22.140625 25.96875 -24.171875 C 25.132812 -26.210938 23.738281 -27.78125 21.78125 -28.875 C 19.832031 -29.976562 17.207031 -30.53125 13.90625 -30.53125 L 7.65625 -30.53125 Z M 7.65625 -3.390625 "/></g></g></g><g fill="#ffffff" fill-opacity="1"><g transform="translate(251.016188, 365.722655)"><g><path d="M 1.453125 0 L 13.953125 -33.921875 L 18.265625 -33.921875 L 30.734375 0 L 26.421875 0 L 23.3125 -8.71875 L 8.875 -8.71875 L 5.71875 0 Z M 10.078125 -12.015625 L 22.109375 -12.015625 L 16.09375 -28.796875 Z M 10.078125 -12.015625 "/></g></g></g><g fill="#ffffff" fill-opacity="1"><g transform="translate(290.697857, 365.722655)"><g><path d="M 12.015625 0 L 12.015625 -12.890625 L 0.96875 -33.921875 L 5.578125 -33.921875 L 14.0625 -16.765625 L 22.53125 -33.921875 L 27.09375 -33.921875 L 16.09375 -12.890625 L 16.09375 0 Z M 12.015625 0 "/></g></g></g></svg>